<svg version="1.1" xmlns="http://www.w3.org/2000/svg" style="display: block;" viewBox="0 0 2059 419" width="2059" height="419" preserveAspectRatio="none">
<path transform="translate(0,0)" fill="rgb(155,101,183)" d="M 103.163 146.034 C 148.944 102.773 198.013 61.7455 243.907 18.4769 C 246.079 16.4291 248.007 14.5994 250.686 13.2341 C 267.486 22.1331 287.915 35.3568 304.392 45.557 C 305.277 97.534 304.619 151.243 304.62 203.427 L 304.617 250.164 C 304.616 258.547 304.887 267.558 304.146 275.869 C 303.854 279.137 302.001 281.167 299.536 283.535 C 268.741 313.117 237.618 342.638 206.667 372.042 C 203.011 375.515 171.168 406.041 168.698 407.547 C 153.753 395.252 139.518 381.1 124.731 368.499 C 117.558 362.386 109.697 355.425 103.175 348.738 L 103.163 146.034 z"/>
<path transform="translate(0,0)" fill="rgb(45,25,71)" d="M 304.392 45.557 C 305.277 97.534 304.619 151.243 304.62 203.427 L 304.617 250.164 C 304.616 258.547 304.887 267.558 304.146 275.869 C 303.854 279.137 302.001 281.167 299.536 283.535 C 268.741 313.117 237.618 342.638 206.667 372.042 C 203.011 375.515 171.168 406.041 168.698 407.547 C 153.753 395.252 139.518 381.1 124.731 368.499 C 117.558 362.386 109.697 355.425 103.175 348.738 C 113.336 347.008 160.788 339.458 167.783 336.971 L 168.003 336.31 C 171.118 334.158 189.419 312.317 193.231 307.871 L 250.634 241.091 C 251.188 191.655 250.883 140.977 250.694 91.4935 C 268.329 76.9974 287.081 60.5339 304.392 45.557 z"/>
<path transform="translate(0,0)" fill="rgb(130,77,165)" d="M 103.175 348.738 C 113.336 347.008 160.788 339.458 167.783 336.971 C 167.618 359.661 169.293 385.59 168.698 407.547 C 153.753 395.252 139.518 381.1 124.731 368.499 C 117.558 362.386 109.697 355.425 103.175 348.738 z"/>
<path transform="translate(0,0)" fill="rgb(130,77,165)" d="M 250.694 91.4935 C 250.883 140.977 251.188 191.655 250.634 241.091 L 193.231 307.871 C 189.419 312.317 171.118 334.158 168.003 336.31 C 166.711 322.963 167.465 292.299 167.461 277.852 L 167.292 167.84 C 195.222 142.532 223.023 117.083 250.694 91.4935 z"/>
<path transform="translate(0,0)" fill="rgb(130,77,165)" d="M 250.686 13.2341 C 267.486 22.1331 287.915 35.3568 304.392 45.557 C 287.081 60.5339 268.329 76.9974 250.694 91.4935 C 251.382 66.7395 250.734 38.1795 250.686 13.2341 z"/>
<path transform="translate(0,0)" fill="rgb(155,101,183)" d="M 1493.98 123.587 C 1552.9 116.541 1610.08 135.319 1617.09 201.969 C 1623.33 261.368 1600.02 312.419 1539.66 328.847 C 1515.93 332.981 1491.98 330.377 1467.96 330.184 C 1462.13 330.136 1439.61 332.098 1441.57 322.712 C 1447.02 316.46 1453.08 315.526 1460.97 313.047 L 1460.97 141.593 C 1454.8 140.089 1445.16 137.843 1441.24 132.865 C 1440.27 120.703 1482.97 124.528 1493.98 123.587 z M 1488.8 314.771 C 1518.41 318.402 1547.66 315.685 1568.84 292.631 C 1576.31 283.337 1581.92 274.057 1585.14 262.595 C 1595.05 227.315 1593.01 179.577 1562.3 154.796 C 1540.85 137.484 1514.36 138.974 1488.8 139.166 L 1488.8 314.771 z"/>
<path transform="translate(0,0)" fill="rgb(155,101,183)" d="M 1713.13 181.406 C 1715.14 181.152 1718.18 181.369 1720.28 181.438 C 1787.61 183.647 1796.56 286.559 1749.92 320.41 C 1737.08 329.73 1724.86 332.559 1709.41 334.898 C 1636.73 339.171 1624.61 251.184 1662.15 205.118 C 1675.07 189.255 1693.08 182.82 1713.13 181.406 z M 1720.88 319.963 C 1754.55 311.524 1754.15 263.67 1747.55 236.772 C 1741.43 211.807 1727.03 196.331 1700.47 196.284 C 1667.92 203.481 1666.99 252.782 1672.65 278.207 C 1678.63 305.029 1693.38 319.894 1720.88 319.963 z"/>
<path transform="translate(0,0)" fill="rgb(130,77,165)" d="M 1091.14 181.405 C 1093.15 181.151 1096.19 181.369 1098.29 181.438 C 1165.61 183.647 1174.55 286.563 1127.92 320.41 C 1115.08 329.732 1102.85 332.56 1087.41 334.897 C 1014.74 339.198 1002.61 251.151 1040.15 205.118 C 1053.09 189.245 1071.08 182.821 1091.14 181.405 z M 1098.89 319.963 C 1132.55 311.523 1132.15 263.667 1125.55 236.772 C 1119.43 211.806 1105.04 196.334 1078.48 196.284 C 1045.92 203.481 1044.99 252.779 1050.65 278.206 C 1056.62 305.032 1071.38 319.895 1098.89 319.963 z"/>
<path transform="translate(0,0)" fill="rgb(130,77,165)" d="M 1274.27 181.403 C 1278 180.809 1289.47 182.042 1293.1 183.236 C 1323.36 193.203 1320.3 226.987 1320.19 251.291 L 1319.86 293.184 C 1319.84 296.085 1319.28 309.92 1321.01 311.404 C 1325.75 315.465 1335.56 317.284 1338.93 323.344 C 1337.46 333.175 1307.58 329.458 1299.49 330.387 C 1293.94 331.023 1282.61 330.556 1278.59 326.498 C 1276.84 318.962 1287.1 316.418 1292.76 314.017 C 1292.72 292.742 1297.06 223.268 1285.65 209.397 C 1280.78 203.474 1273.24 200.272 1265.72 199.641 C 1254.6 198.709 1240.06 202.581 1231.57 209.876 C 1228.47 212.543 1228.2 213.868 1227.86 217.75 L 1227.78 277.926 C 1227.77 285.403 1227.19 303.648 1228.59 310.001 C 1233.91 318.87 1243.35 312.845 1248.54 322.087 C 1248.69 325.895 1249.06 324.569 1246.91 327.674 C 1240.51 332.03 1208.71 329.578 1199.6 330.33 C 1195.76 330.646 1189.42 329.432 1186.42 326.629 C 1184.46 318.935 1195.18 316.418 1200.97 314.026 L 1200.97 211.549 C 1193.63 209.87 1184.43 208.578 1182.87 200.407 C 1186.22 190.194 1216.51 180.056 1223.89 186.777 C 1225.34 190.945 1224.83 198.598 1224.74 203.289 C 1241.02 189.384 1253.11 182.93 1274.27 181.403 z"/>
<path transform="translate(0,0)" fill="rgb(130,77,165)" d="M 476.209 125.002 C 492.609 124.076 589.77 123.174 601.187 126.848 C 603.385 127.555 605.275 128.785 606.335 130.866 C 609.909 137.881 604.257 161.478 601.734 169.351 C 600.767 172.368 599.647 175.981 596.646 177.523 C 586.054 175.306 584.945 147.657 576.859 141.635 C 570.252 136.714 531.124 138.769 521.792 138.834 L 521.798 218.427 C 532.606 218.114 576.602 215.695 584.225 217.495 C 589.869 223.573 581.823 233.348 577.373 238.203 C 571.413 238.075 565.221 237.685 559.247 237.388 C 547.953 236.396 533.372 236.157 521.795 235.622 L 521.798 312.446 C 530.263 313.426 550.366 314.866 556.415 319.117 C 558.32 322.335 557.862 321.208 557.996 324.914 C 557.516 325.869 556.909 327.623 556.103 328.265 C 551.877 331.632 493.696 330.999 484.746 329.952 C 481.39 329.559 477.023 328.786 474.85 325.938 C 474.088 324.938 474.525 323.965 474.681 322.768 C 479.758 316.469 486.246 315.452 493.97 313.047 L 493.974 141.594 C 490.903 140.763 487.84 139.901 484.786 139.009 C 480.054 137.613 476.973 137.025 474.474 132.439 C 473.798 129.557 474.978 127.691 476.209 125.002 z"/>
<path transform="translate(0,0)" fill="rgb(130,77,165)" d="M 727.603 185.436 C 731.233 185.077 740.428 184.151 741.018 189.025 C 745.779 226.46 733.638 275.399 748.175 310.204 C 756.077 329.124 790.994 312.165 801.789 304.586 L 801.789 204.041 C 795.449 202.687 783.898 201.445 782.481 194.122 C 787.134 185.228 821.081 183.191 826.16 187.799 C 829.558 190.881 827.981 238.492 827.952 244.5 C 827.946 267.866 827.613 292.117 828.058 315.41 C 830.735 318.126 837.355 312.047 844.635 316.504 L 844.887 318.558 C 840.032 331.756 815.826 341.148 804.813 330.748 C 800.874 327.028 801.697 321.443 801.782 316.378 C 787.041 327.712 778.37 334.179 759.466 334.927 C 724.634 336.304 713.497 315.707 714.601 284.049 C 714.795 278.464 714.464 269.844 714.423 263.783 L 714.013 203.739 C 712.684 203.435 711.372 203.062 710.083 202.621 C 705.003 200.839 699.156 198.68 701.485 192.506 C 707.629 186.005 719.348 185.816 727.603 185.436 z"/>
<path transform="translate(0,0)" fill="rgb(130,77,165)" d="M 858.255 187.318 C 867.47 186.513 915.376 183.637 918.213 192.781 C 915.93 198.255 907.771 200.797 902.403 203.071 C 912.256 216.785 922.109 231.262 931.799 245.144 C 940.764 234.327 951.203 221.106 959.597 209.781 C 963.457 204.574 945.881 201.131 943.126 192.259 L 944.418 190.273 C 946.965 188.812 951.282 186.91 954.099 187.133 C 965.312 188.018 995.197 183.622 1003.15 190.591 C 1005.06 197.688 992.834 200.878 987.58 202.963 C 973.145 221.571 956.394 241.243 941.355 259.521 C 957.469 276.728 972.007 295.855 988.583 312.605 C 992.883 316.951 1004.9 315.205 1006.48 323.109 C 1005.45 326.706 1004.64 327.293 1001.76 329.732 C 992.438 330.48 949.776 331.581 943.431 327.629 C 939.482 320.562 950.247 316.651 955.494 313.783 C 945.19 299.567 935.024 285.251 924.998 270.838 C 919.792 278.402 900.275 302.94 898.553 309.43 C 900.366 316.582 908.505 315.774 914.371 320.607 C 918.574 331.813 894.634 331.051 888.789 330.129 C 879.989 328.741 858.71 333.693 854.935 325.554 C 856.306 316.246 866.958 318.22 870.921 313.789 C 885.629 297.349 902.108 276.371 915.808 259.438 C 900.84 241.653 885.332 222.997 870.011 205.465 C 866.493 201.44 856.226 200.844 852.7 195.55 C 852.377 191.156 854.81 189.338 858.255 187.318 z"/>
<path transform="translate(0,0)" fill="rgb(155,101,183)" d="M 1994.7 181.439 C 2005.4 178.754 2030.53 185.659 2032.37 198.441 C 2033.32 205.085 2033.93 225.835 2026.18 227.859 C 2015.81 223.832 2018.08 197.596 1993.45 198.75 C 1983.1 199.236 1967.36 194.858 1964.8 212.807 C 1963.87 219.281 1966.92 225.882 1971.2 230.3 C 1994.64 250.979 2044.02 253.404 2041.13 294.818 C 2038.1 325.828 2001.13 337.068 1974.23 334.461 C 1958.89 331.167 1949.67 328.088 1939.01 316.443 C 1939.04 309.254 1938.09 284.276 1946.59 282.816 C 1953.99 286.154 1956.67 304.432 1965.12 311.04 C 1973.15 317.841 1985.22 319.683 1995.35 319.64 C 2005.5 319.596 2017.88 310.172 2015.92 299.138 C 2011.14 272.312 1971.4 270.874 1954.25 253.72 C 1947.18 246.645 1941.57 241.659 1940.84 230.639 C 1940.15 198.318 1967.14 183.414 1994.7 181.439 z"/>
<path transform="translate(0,0)" fill="rgb(155,101,183)" d="M 1872.9 181.413 C 1877.84 180.745 1882.98 181.693 1888.2 182.435 C 1907.34 185.15 1926.77 210.611 1906 224.639 C 1903.34 226.438 1893.41 230.327 1890.27 228.918 C 1883.01 225.664 1886.01 210.09 1881.67 204.093 C 1879.22 200.006 1875.42 198.955 1870.99 197.801 C 1849.73 192.277 1838.11 211.613 1834.34 229.375 C 1829.95 250.033 1830.83 280.12 1842.49 298.422 C 1848.21 307.404 1857.24 313.763 1867.63 316.116 C 1878.23 318.461 1884.04 316.53 1892.61 311.068 C 1893.12 310.679 1893.64 310.297 1894.16 309.924 C 1898.84 306.591 1906.17 303.206 1912.06 304.2 C 1914.91 306.134 1914.08 305.167 1915.3 308.498 C 1915.07 312.069 1913.66 315.535 1911.12 318.025 C 1889.08 339.922 1847.89 340.438 1824.85 320.256 C 1785.72 285.987 1800.75 201.613 1851.18 185.244 C 1859.25 182.626 1864.43 181.992 1872.9 181.413 z"/>
<path transform="translate(0,0)" fill="rgb(130,77,165)" d="M 643.615 105.345 C 649.793 104.968 659.053 103.372 664.935 105.498 C 668.355 106.734 667.494 117.485 667.491 120.748 C 667.472 141.445 665.355 304.33 668.633 310.834 C 671.28 316.085 680.287 315.657 685.185 317.527 C 687.629 318.46 688.334 319.724 689.383 321.993 C 688.884 325.928 689.524 324.899 687.077 327.833 C 679.756 331.447 664.197 330.14 655.5 330 C 647.568 330.128 631.941 331.533 626.317 326.645 C 624.31 319.248 635.665 316.334 641.13 314.061 L 641.129 124.742 C 635.837 123.574 630.523 122.981 626.806 119.108 C 625.497 115.682 625.557 117.044 626.602 113.499 C 631.334 107.941 636.635 107.235 643.615 105.345 z"/>
<path transform="translate(0,0)" fill="rgb(130,77,165)" d="M 28.3981 165.246 C 28.5059 149.744 27.7574 125.428 28.8216 110.633 C 44.4751 120.357 61.7939 132.517 77.1774 141.558 C 76.76 159.972 77.935 176.058 76.9004 194.659 L 76.0667 195.141 L 75.7335 194.804 C 67.124 190.675 36.8514 171.007 28.3981 165.246 z"/>
<path transform="translate(0,0)" fill="rgb(45,25,71)" d="M 77.1774 141.558 C 76.76 159.972 77.935 176.058 76.9004 194.659 L 76.0667 195.141 L 75.7335 194.804 C 69.4934 182.075 60.0463 166.135 53.0294 153.464 L 77.1774 141.558 z"/>
<path transform="translate(0,0)" fill="rgb(155,101,183)" d="M 28.3981 165.246 C 28.5059 149.744 27.7574 125.428 28.8216 110.633 C 34.3802 122.652 46.4894 140.88 53.232 153.624 C 43.9776 157.299 37.2137 160.991 28.3981 165.246 z"/>
<path transform="translate(0,0)" fill="rgb(130,77,165)" d="M 311.837 317.142 L 313.349 315.901 C 314.94 319.521 323.117 356.474 323.178 360.418 C 314.068 369.64 303.019 381.529 293.522 389.951 L 292.464 389.206 C 289.911 382.596 284.165 354.522 282.373 346.394 C 292.086 336.535 301.908 326.784 311.837 317.142 z"/>
<path transform="translate(0,0)" fill="rgb(155,101,183)" d="M 311.837 317.142 C 312.525 324.084 305.288 345.721 303.176 353.597 C 296.34 350.968 289.476 348.161 282.373 346.394 C 292.086 336.535 301.908 326.784 311.837 317.142 z"/>
<path transform="translate(0,0)" fill="rgb(45,25,71)" d="M 303.313 353.59 C 309.948 355.826 316.57 358.102 323.178 360.418 C 314.068 369.64 303.019 381.529 293.522 389.951 L 292.464 389.206 C 294.039 386.162 301.002 360.305 303.313 353.59 z"/>
</svg>