<svg version="1.1" xmlns="http://www.w3.org/2000/svg" style="display: block;" viewBox="0 0 2059 419" width="2059" height="419" preserveAspectRatio="none">
<path transform="translate(0,0)" fill="rgb(160,99,185)" d="M 103.163 146.034 C 148.944 102.773 198.013 61.7455 243.907 18.4769 C 246.079 16.4291 248.007 14.5994 250.686 13.2341 C 267.486 22.1331 287.915 35.3568 304.392 45.557 C 305.277 97.534 304.619 151.243 304.62 203.427 L 304.617 250.164 C 304.616 258.547 304.887 267.558 304.146 275.869 C 303.854 279.137 302.001 281.167 299.536 283.535 C 268.741 313.117 237.618 342.638 206.667 372.042 C 203.011 375.515 171.168 406.041 168.698 407.547 C 153.753 395.252 139.518 381.1 124.731 368.499 C 117.558 362.386 109.697 355.425 103.175 348.738 L 103.163 146.034 z"/>
<path transform="translate(0,0)" fill="rgb(50,30,77)" d="M 304.392 45.557 C 305.277 97.534 304.619 151.243 304.62 203.427 L 304.617 250.164 C 304.616 258.547 304.887 267.558 304.146 275.869 C 303.854 279.137 302.001 281.167 299.536 283.535 C 268.741 313.117 237.618 342.638 206.667 372.042 C 203.011 375.515 171.168 406.041 168.698 407.547 C 153.753 395.252 139.518 381.1 124.731 368.499 C 117.558 362.386 109.697 355.425 103.175 348.738 C 113.336 347.008 160.788 339.458 167.783 336.971 L 168.003 336.31 C 171.118 334.158 189.419 312.317 193.231 307.871 L 250.634 241.091 C 251.188 191.655 250.883 140.977 250.694 91.4935 C 268.329 76.9974 287.081 60.5339 304.392 45.557 z"/>
<path transform="translate(0,0)" fill="rgb(106,60,145)" d="M 103.175 348.738 C 113.336 347.008 160.788 339.458 167.783 336.971 C 167.618 359.661 169.293 385.59 168.698 407.547 C 153.753 395.252 139.518 381.1 124.731 368.499 C 117.558 362.386 109.697 355.425 103.175 348.738 z"/>
<path transform="translate(0,0)" fill="rgb(106,60,145)" d="M 250.694 91.4935 C 250.883 140.977 251.188 191.655 250.634 241.091 L 193.231 307.871 C 189.419 312.317 171.118 334.158 168.003 336.31 C 166.711 322.963 167.465 292.299 167.461 277.852 L 167.292 167.84 C 195.222 142.532 223.023 117.083 250.694 91.4935 z"/>
<path transform="translate(0,0)" fill="rgb(106,60,145)" d="M 250.686 13.2341 C 267.486 22.1331 287.915 35.3568 304.392 45.557 C 287.081 60.5339 268.329 76.9974 250.694 91.4935 C 251.382 66.7395 250.734 38.1795 250.686 13.2341 z"/>
<path transform="translate(0,0)" fill="rgb(50,30,77)" d="M 1493.99 123.587 C 1552.89 116.522 1610.09 135.346 1617.09 201.969 C 1623.32 261.368 1600.03 312.413 1539.67 328.846 C 1515.93 332.984 1491.98 330.375 1467.96 330.183 C 1462.13 330.137 1439.61 332.098 1441.57 322.712 C 1447.02 316.46 1453.08 315.524 1460.97 313.045 L 1460.97 141.593 C 1454.8 140.088 1445.16 137.843 1441.24 132.865 C 1440.27 120.704 1482.99 124.527 1493.99 123.587 z M 1488.8 314.774 C 1518.4 318.395 1547.67 315.691 1568.84 292.63 C 1576.3 283.343 1581.93 274.055 1585.14 262.599 C 1595.06 227.292 1593.01 179.632 1562.31 154.815 C 1540.82 137.439 1514.41 138.985 1488.8 139.166 L 1488.8 314.774 z"/>
<path transform="translate(0,0)" fill="rgb(50,30,77)" d="M 1091.15 181.405 C 1093.15 181.15 1096.19 181.369 1098.28 181.438 C 1165.61 183.645 1174.55 286.568 1127.92 320.41 C 1115.07 329.733 1102.85 332.56 1087.41 334.897 C 1014.74 339.211 1002.61 251.136 1040.15 205.119 C 1053.1 189.239 1071.08 182.82 1091.15 181.405 z M 1098.88 319.963 C 1132.55 311.525 1132.15 263.673 1125.55 236.772 C 1119.43 211.807 1105.03 196.33 1078.47 196.285 C 1045.92 203.478 1044.99 252.783 1050.65 278.206 C 1056.62 305.024 1071.37 319.896 1098.88 319.963 z"/>
<path transform="translate(0,0)" fill="rgb(50,30,77)" d="M 1713.15 181.405 C 1715.15 181.15 1718.2 181.37 1720.28 181.438 C 1787.61 183.645 1796.55 286.569 1749.92 320.41 C 1737.07 329.735 1724.85 332.561 1709.4 334.897 C 1636.74 339.207 1624.61 251.13 1662.15 205.119 C 1675.1 189.237 1693.08 182.82 1713.15 181.405 z M 1720.89 319.963 C 1754.55 311.525 1754.15 263.668 1747.55 236.771 C 1741.43 211.806 1727.04 196.335 1700.48 196.284 C 1667.92 203.477 1666.99 252.781 1672.65 278.207 C 1678.63 305.028 1693.38 319.898 1720.89 319.963 z"/>
<path transform="translate(0,0)" fill="rgb(50,30,77)" d="M 1274.26 181.403 C 1277.92 180.832 1289.55 181.997 1293.06 183.217 C 1322.77 193.406 1320.32 224.832 1320.22 250.699 C 1320.16 267.945 1319.97 290.612 1319.72 307.976 C 1319.65 313.02 1335.59 317.881 1338.48 323.127 C 1337.5 332.626 1310.95 329.937 1303.35 330.399 C 1296.77 330.799 1283.19 331.221 1278.59 326.481 C 1276.92 318.918 1287.06 316.438 1292.76 314.018 C 1292.72 292.743 1297.06 223.267 1285.65 209.396 C 1280.78 203.474 1273.24 200.272 1265.72 199.641 C 1254.6 198.709 1240.06 202.581 1231.57 209.876 C 1228.47 212.543 1228.2 213.868 1227.86 217.75 L 1227.78 277.926 C 1227.77 285.403 1227.19 303.648 1228.59 310.002 C 1233.91 318.871 1243.35 312.846 1248.54 322.087 C 1248.69 325.894 1249.06 324.569 1246.91 327.672 C 1240.5 332.033 1208.72 329.578 1199.6 330.33 C 1195.76 330.646 1189.42 329.431 1186.42 326.628 C 1184.46 318.934 1195.18 316.418 1200.98 314.027 L 1200.97 211.549 C 1193.63 209.871 1184.43 208.578 1182.87 200.407 C 1186.22 190.194 1216.51 180.056 1223.89 186.777 C 1225.33 190.945 1224.83 198.598 1224.74 203.288 C 1241.01 189.387 1253.11 182.931 1274.26 181.403 z"/>
<path transform="translate(0,0)" fill="rgb(50,30,77)" d="M 476.208 125.002 C 493.944 124.006 588.502 123.2 600.773 126.752 C 603.153 127.44 605.286 128.536 606.454 130.84 C 609.509 136.868 604.084 161.764 601.869 168.874 C 600.892 172.011 599.745 175.898 596.654 177.53 C 586.056 175.309 584.945 147.66 576.859 141.635 C 570.258 136.716 531.122 138.771 521.793 138.835 L 521.798 218.425 C 532.613 218.115 576.599 215.695 584.225 217.495 C 589.869 223.576 581.822 233.348 577.37 238.202 C 571.411 238.075 565.22 237.685 559.247 237.389 C 548.236 236.363 533.149 236.143 521.795 235.621 L 521.798 312.446 C 530.265 313.426 550.363 314.864 556.414 319.118 C 558.319 322.335 557.861 321.209 557.996 324.914 C 557.516 325.869 556.909 327.624 556.103 328.266 C 551.876 331.632 493.696 330.999 484.746 329.952 C 481.391 329.559 477.023 328.786 474.85 325.938 C 474.087 324.938 474.525 323.965 474.681 322.768 C 479.758 316.469 486.246 315.452 493.969 313.047 L 493.975 141.594 C 490.904 140.763 487.841 139.901 484.787 139.009 C 480.055 137.613 476.972 137.025 474.473 132.439 C 473.799 129.557 474.978 127.692 476.208 125.002 z"/>
<path transform="translate(0,0)" fill="rgb(50,30,77)" d="M 727.608 185.436 C 731.248 185.078 740.417 184.151 741.018 189.025 C 745.848 226.478 733.473 275.788 748.367 310.482 C 756.292 328.94 791.065 312.174 801.789 304.586 L 801.789 204.041 C 795.449 202.687 783.898 201.445 782.48 194.122 C 787.134 185.228 821.079 183.192 826.16 187.799 C 829.559 190.88 827.982 238.492 827.953 244.5 L 828.052 314.939 C 830.719 318.957 842.582 309.792 844.822 318.496 C 841.64 331.493 814.39 341.218 804.794 330.723 C 800.794 326.349 801.69 321.819 801.783 316.373 C 787.584 327.257 777.803 334.472 759.466 334.926 C 710.371 336.143 714.666 299.509 714.425 263.932 L 714.013 203.739 C 712.684 203.435 711.372 203.062 710.083 202.621 C 705.003 200.84 699.156 198.68 701.485 192.506 C 707.631 186.005 719.351 185.816 727.608 185.436 z"/>
<path transform="translate(0,0)" fill="rgb(50,30,77)" d="M 858.255 187.318 C 867.476 186.512 915.362 183.64 918.217 192.779 C 915.934 198.255 907.774 200.795 902.402 203.068 C 912.26 216.806 922.1 231.25 931.799 245.147 C 940.771 234.224 951.192 221.185 959.597 209.782 C 963.441 204.568 945.9 201.135 943.122 192.263 L 944.414 190.269 C 952.768 185.484 996.095 184.581 1003.14 190.581 C 1005.23 197.631 992.774 200.9 987.578 202.963 C 973.146 221.572 956.388 241.247 941.355 259.521 C 957.468 276.729 972.009 295.853 988.582 312.606 C 992.882 316.952 1004.9 315.203 1006.48 323.109 C 1005.45 326.707 1004.64 327.294 1001.76 329.734 C 992.423 330.478 949.779 331.582 943.431 327.629 C 939.481 320.562 950.246 316.651 955.493 313.784 C 945.192 299.566 935.026 285.25 924.997 270.839 C 919.791 278.4 900.274 302.94 898.553 309.43 C 900.554 317.326 909.354 315.312 914.753 321.049 C 917.655 335.904 880.95 328.121 872.131 330.139 C 866.568 331.411 856.351 331.095 854.9 324.091 C 858.255 316.416 867.908 317.736 871.135 314.087 C 875.341 309.33 881.456 301.741 885.592 296.673 L 915.809 259.44 C 900.843 241.657 885.331 222.995 870.012 205.465 C 866.499 201.444 856.206 200.834 852.705 195.55 C 852.373 191.156 854.811 189.335 858.255 187.318 z"/>
<path transform="translate(0,0)" fill="rgb(50,30,77)" d="M 1994.7 181.439 C 2005.39 178.749 2030.55 185.666 2032.37 198.442 C 2033.31 205.086 2033.93 225.841 2026.18 227.859 C 2019.6 225.298 2016.06 210.334 2011.63 205.301 C 2004.91 197.665 1977.72 195.525 1970.73 202.156 C 1944.45 226.564 1996.79 244.737 2013.76 253.418 C 2042.37 268.054 2052.79 298.071 2026.29 321.174 C 2013.43 332.393 1991.43 336.129 1974.23 334.46 C 1958.89 331.166 1949.66 328.085 1939 316.441 C 1939.04 309.246 1938.1 284.285 1946.59 282.809 C 1953.99 286.156 1956.67 304.436 1965.12 311.04 C 1973.15 317.836 1985.22 319.686 1995.35 319.641 C 2005.49 319.596 2017.88 310.171 2015.92 299.138 C 2011.14 272.315 1971.39 270.873 1954.25 253.718 C 1947.19 246.647 1941.57 241.654 1940.83 230.64 C 1940.15 198.317 1967.15 183.416 1994.7 181.439 z"/>
<path transform="translate(0,0)" fill="rgb(50,30,77)" d="M 1872.9 181.412 C 1877.6 180.652 1886.04 181.857 1891 182.899 C 1913 187.523 1922.88 213.793 1902.68 227.693 C 1899.53 229.862 1895.56 229.963 1891.83 229.057 C 1881.85 226.635 1886.76 211.167 1881.47 204.239 C 1879.46 200.968 1876.54 198.717 1872.71 197.813 C 1851.16 192.73 1838.38 209.645 1834.46 228.56 C 1829.93 250.399 1830.42 277.144 1841.75 296.982 C 1846.88 305.963 1856.89 313.951 1867.07 316.042 C 1878.39 318.185 1883.29 317.007 1892.61 311.068 C 1893.12 310.679 1893.64 310.298 1894.16 309.924 C 1898.84 306.59 1906.18 303.203 1912.06 304.202 C 1914.91 306.138 1914.08 305.17 1915.3 308.498 C 1915.07 312.069 1913.66 315.535 1911.12 318.025 C 1889.08 339.922 1847.89 340.438 1824.85 320.256 C 1785.72 285.985 1800.75 201.615 1851.18 185.244 C 1859.25 182.625 1864.43 181.991 1872.9 181.412 z"/>
<path transform="translate(0,0)" fill="rgb(50,30,77)" d="M 643.629 105.342 C 649.802 104.967 659.06 103.373 664.934 105.5 C 668.332 106.73 667.493 117.214 667.491 120.447 C 667.475 141.164 665.351 304.324 668.633 310.834 C 671.281 316.086 680.289 315.658 685.188 317.527 C 687.631 318.459 688.334 319.725 689.382 321.993 C 688.884 325.928 689.523 324.899 687.076 327.833 C 679.757 331.447 664.196 330.14 655.5 330 C 647.568 330.128 631.94 331.533 626.317 326.645 C 624.311 319.249 635.665 316.333 641.13 314.06 L 641.128 124.742 C 635.838 123.575 630.522 122.98 626.807 119.107 C 625.498 115.682 625.558 117.044 626.603 113.5 C 631.336 107.938 636.645 107.232 643.629 105.342 z"/>
<path transform="translate(0,0)" fill="rgb(106,60,145)" d="M 28.3981 165.246 C 28.5059 149.744 27.7574 125.428 28.8216 110.633 C 44.4751 120.357 61.7939 132.517 77.1774 141.558 C 76.76 159.972 77.935 176.058 76.9004 194.659 L 76.0667 195.141 L 75.7335 194.804 C 67.124 190.675 36.8514 171.007 28.3981 165.246 z"/>
<path transform="translate(0,0)" fill="rgb(50,30,77)" d="M 77.1774 141.558 C 76.76 159.972 77.935 176.058 76.9004 194.659 L 76.0667 195.141 L 75.7335 194.804 C 69.4934 182.075 60.0463 166.135 53.0294 153.464 L 77.1774 141.558 z"/>
<path transform="translate(0,0)" fill="rgb(160,99,185)" d="M 28.3981 165.246 C 28.5059 149.744 27.7574 125.428 28.8216 110.633 C 34.3802 122.652 46.4894 140.88 53.232 153.624 C 43.9776 157.299 37.2137 160.991 28.3981 165.246 z"/>
<path transform="translate(0,0)" fill="rgb(106,60,145)" d="M 311.837 317.142 L 313.349 315.901 C 314.94 319.521 323.117 356.474 323.178 360.418 C 314.068 369.64 303.019 381.529 293.522 389.951 L 292.464 389.206 C 289.911 382.596 284.165 354.522 282.373 346.394 C 292.086 336.535 301.908 326.784 311.837 317.142 z"/>
<path transform="translate(0,0)" fill="rgb(160,99,185)" d="M 311.837 317.142 C 312.525 324.084 305.288 345.721 303.176 353.597 C 296.34 350.968 289.476 348.161 282.373 346.394 C 292.086 336.535 301.908 326.784 311.837 317.142 z"/>
<path transform="translate(0,0)" fill="rgb(50,30,77)" d="M 303.313 353.59 C 309.948 355.826 316.57 358.102 323.178 360.418 C 314.068 369.64 303.019 381.529 293.522 389.951 L 292.464 389.206 C 294.039 386.162 301.002 360.305 303.313 353.59 z"/>
</svg>